<?xml version="1.0" encoding="utf-8"?>
<!-- Generator: Adobe Illustrator 22.0.1, SVG Export Plug-In . SVG Version: 6.00 Build 0)  -->
<svg version="1.1" id="Capa_1" xmlns="http://www.w3.org/2000/svg" xmlns:xlink="http://www.w3.org/1999/xlink" x="0px" y="0px"
	 viewBox="0 0 264.2 60.5" style="enable-background:new 0 0 264.2 60.5;" xml:space="preserve">
<style type="text/css">
	.st0{fill:#FFBF3C;}
	.st1{fill:#3F3A60;}
	.st2{fill:#FF5C35;}
	.st3{fill:#6AAAE4;}
</style>
<g>
	<path class="st0" d="M59.6,29.8C59.6,14,46.7,1.2,30.9,1.2v28.7H59.6z"/>
	<path class="st1" d="M2.3,29.8c0,15.8,12.8,28.7,28.7,28.7V29.8H2.3z"/>
	<path class="st2" d="M2.3,29.8C2.3,14,15.1,1.2,30.9,1.2v28.7H2.3z"/>
	<path class="st3" d="M30.9,58.5c0-15.8,12.8-28.7,28.7-28.7v28.7H30.9z"/>
	<g>
		<g>
			<g>
				<path class="st1" d="M262.3,33.1c0,1.6-1.1,3-3,3c-1.9,0-3-1.4-3-3c0-1.6,1.1-3,3-3C261.2,30.1,262.3,31.5,262.3,33.1z
					 M259.3,35.7c1.6,0,2.6-1.2,2.6-2.6c0-1.5-0.9-2.6-2.6-2.6c-1.6,0-2.5,1.2-2.5,2.6C256.8,34.6,257.7,35.7,259.3,35.7z
					 M259.6,31.5h-1.4v3.1h0.4v-1.2h0.7l1,1.2h0.4v-0.1l-1-1.1C261,33.3,260.9,31.5,259.6,31.5z M258.6,31.9h1c0.9,0,0.9,1.2,0,1.2
					h-1V31.9z"/>
			</g>
			<g>
				<path class="st1" d="M99.8,54.9c-3,2.9-6.8,4.3-10.9,4.3c-10.7,0-15.2-7.3-15.2-14.8c0-7.5,4.8-15.1,15.2-15.1
					c3.9,0,7.6,1.5,10.5,4.4l-3.6,3.5c-1.9-1.8-4.4-2.7-6.9-2.7c-6.9,0-9.9,5.2-9.9,10c0,4.8,2.8,9.7,9.9,9.7c2.5,0,5.3-1,7.2-2.9
					L99.8,54.9z"/>
				<path class="st1" d="M106.8,50.2c0.3,2.5,2.5,4.3,6,4.3c1.8,0,4.3-0.7,5.4-1.9l3.2,3.2c-2.1,2.2-5.6,3.3-8.7,3.3
					c-7,0-11.1-4.3-11.1-10.8c0-6.2,4.2-10.6,10.7-10.6c6.8,0,11,4.2,10.2,12.5H106.8z M117.7,46.1c-0.3-2.6-2.4-3.9-5.2-3.9
					c-2.7,0-4.9,1.3-5.7,3.9H117.7z"/>
				<path class="st1" d="M141.7,58.6V48c0-3.1-1.7-5.4-4.9-5.4c-3.1,0-5.2,2.6-5.2,5.7v10.3h-5V38.3h4.5l0.3,2.7c2.1-2,4.1-3,6.6-3
					c4.8,0,8.6,3.6,8.6,9.9v10.6H141.7z"/>
				<path class="st1" d="M157.6,32.6v5.7h5.6v4.3h-5.6v8.7c0,1.9,1.1,2.9,2.6,2.9c0.8,0,1.7-0.2,2.4-0.6l1.4,4.3
					c-1.4,0.6-2.6,0.8-4.1,0.9c-4.4,0.2-7.3-2.3-7.3-7.4v-8.7h-3.8v-4.3h3.8v-5.2L157.6,32.6z"/>
				<path class="st1" d="M172,38.3l0.4,2.3c1.6-2.5,3.7-2.9,5.7-2.9c2.1,0,4.1,0.8,5.2,1.9l-2.3,4.3c-1-0.9-2-1.3-3.6-1.3
					c-2.6,0-5,1.4-5,5.1v10.7h-5V38.3H172z"/>
				<path class="st1" d="M191,32.6c0,3.9-5.9,3.9-5.9,0S191,28.7,191,32.6z M185.6,38.2v20.3h5V38.2H185.6z"/>
				<path class="st1" d="M200.5,29.9v11.2c1.2-2.1,4.5-3.2,6.6-3.2c5.9,0,10.3,3.6,10.3,10.6c0,6.6-4.5,10.6-10.4,10.6
					c-2.5,0-5-0.8-6.5-3.2l-0.3,2.8h-4.7V29.9H200.5z M200.8,48.4c0,3.7,2.7,5.9,5.9,5.9c3.2,0,5.7-2.4,5.7-5.9
					c0-3.7-2.5-5.9-5.7-5.9C203.5,42.5,200.8,44.9,200.8,48.4z"/>
				<path class="st1" d="M237.6,38.3h4.8v20.2h-4.7l-0.2-3c-1.1,2.4-4.3,3.5-6.6,3.6c-6,0-10.4-3.7-10.4-10.7
					c0-7,4.6-10.6,10.5-10.6c2.7,0,5.3,1.3,6.4,3.3L237.6,38.3z M225.4,48.4c0,3.9,2.7,6.2,6,6.2c7.9,0,7.9-12.3,0-12.3
					C228.1,42.3,225.4,44.6,225.4,48.4z"/>
				<path class="st1" d="M252,29.9v28.7h-5V29.9H252z"/>
			</g>
		</g>
	</g>
</g>
</svg>
